<svg xmlns="http://www.w3.org/2000/svg" width="209" height="78" viewBox="0 0 209 78">
  <g id="Group_119" data-name="Group 119" transform="translate(-28.8 -978.962)">
    <g id="Group_78" data-name="Group 78" transform="translate(28.8 978.962)">
      <path id="Path_478" data-name="Path 478" d="M61.9,1036.689a1.729,1.729,0,0,0-.987-1.406v-3.963l1.444-2.326v-4.337l-3.3-7.435-1.418,3.626-8.286-31.191a2.2,2.2,0,0,0-.6-3.3v-3.67h.989v-2.207h-.989v-1.52H46.538v1.52H45.55v2.207h.988v3.67a2.2,2.2,0,0,0-.6,3.3l-8.286,31.191-1.417-3.626-3.3,7.435v4.337l1.443,2.326v3.963a1.733,1.733,0,0,0-.987,1.406H30.344l-1.544-2.121v6.016l1.544-2.119h1.492l1.574,2.483-.631.832-.466,7.243,1.81,3.293v4.646H61.158v-4.646l1.81-3.293-.467-7.243-.63-.832,1.573-2.483h1.493l1.544,2.119v-6.016l-1.544,2.121ZM33.66,1024.813l2.527-5.683,1.594,4.079,8.972-33.777a1.466,1.466,0,0,1,.521-2.587v-4.891h-.988v-.736h.988V979.7h.735v1.52H49v.736h-.988v4.891a1.466,1.466,0,0,1,.521,2.587l8.972,33.777,1.594-4.079,2.527,5.683v2.561H52.63v-2.85H42.652v2.85H33.66Zm26.757,31.413H34.864v-2.8H60.417Zm1.8-7.37-1.8,3.271v.316H34.858v-.316l-1.8-3.271.04-.623H62.181Zm-22.441-1.6v-10.627a2.035,2.035,0,0,1,4.07,0v10.627Zm5.05,0v-13.138a2.811,2.811,0,1,1,5.622,0v13.138Zm6.6,0v-10.627a2.034,2.034,0,1,1,4.069,0v10.627Zm14.315-10.428v1.5l-.436-.6H60.264l-.1.293,1.155,1.348.408-.9.818-.654.4.061-1.595,2.515-.919-.123,1.349,1.779.335,5.2H56.452v-10.627a2.983,2.983,0,0,0-5.049-2.155v-.356a3.762,3.762,0,1,0-7.523,0v.358a2.982,2.982,0,0,0-5.05,2.153v10.627H33.164l.335-5.2,1.35-1.779-.919.123-1.595-2.515.4-.061.819.654.408.9,1.154-1.348-.1-.293H29.972l-.436.6v-1.5l.436.6H34.11v-.576a.993.993,0,0,1,.994-.994v-4.743l-1.444-2.325v-.43h9.973v-2.849h8.016v2.849h9.973v.43l-1.444,2.325v4.743a.994.994,0,0,1,.994.994v.576H65.31Z" transform="translate(-28.8 -978.962)" fill="#fff"/>
    </g>
    <g id="Group_79" data-name="Group 79" transform="translate(29.535 979.698)">
      <path id="Path_479" data-name="Path 479" d="M42.815,1024.549h9.978v2.85h8.992v-2.562l-2.527-5.683-1.594,4.079-8.972-33.778a1.466,1.466,0,0,0-.521-2.588v-4.891h.988v-.736h-.988v-1.52h-.735v1.52h-.988v.736h.988v4.891a1.466,1.466,0,0,0-.521,2.588l-8.972,33.778-1.594-4.079-2.527,5.683v2.562h8.992Z" transform="translate(-29.698 -979.722)" fill="#cb333b"/>
      <rect id="Rectangle_484" data-name="Rectangle 484" width="25.552" height="2.801" transform="translate(5.329 73.728)" fill="#cb333b"/>
      <path id="Path_480" data-name="Path 480" d="M33.243,1050.523l-.04.623,1.8,3.27v.317H60.566v-.317l1.8-3.27-.041-.623Z" transform="translate(-29.678 -981.987)" fill="#cb333b"/>
      <path id="Path_481" data-name="Path 481" d="M48.177,1033.031a2.811,2.811,0,0,0-2.81,2.813v13.138h5.622v-13.138A2.812,2.812,0,0,0,48.177,1033.031Z" transform="translate(-30.072 -981.427)" fill="#cb333b"/>
      <path id="Path_482" data-name="Path 482" d="M42.183,1036.429a2.035,2.035,0,0,0-2.035,2.035v10.627h4.07v-10.627A2.035,2.035,0,0,0,42.183,1036.429Z" transform="translate(-29.903 -981.536)" fill="#cb333b"/>
      <path id="Path_483" data-name="Path 483" d="M54.225,1036.429a2.035,2.035,0,0,0-2.035,2.035v10.627h4.069v-10.627A2.034,2.034,0,0,0,54.225,1036.429Z" transform="translate(-30.293 -981.536)" fill="#cb333b"/>
      <path id="Path_484" data-name="Path 484" d="M61.2,1038.962v-.576a.993.993,0,0,0-.994-.994v-4.743l1.444-2.325v-.43H51.673v-2.849H43.658v2.849H33.685v.43l1.444,2.325v4.743a.993.993,0,0,0-.994.994v.576H30l-.436-.6v1.5l.436-.6h5.045l.1.292-1.154,1.349-.408-.9-.819-.654-.4.061,1.595,2.515.919-.123-1.35,1.779-.335,5.2h5.666v-10.627a2.982,2.982,0,0,1,5.05-2.153v-.358a3.762,3.762,0,1,1,7.523,0v.356a2.983,2.983,0,0,1,5.049,2.155v10.627h5.665l-.335-5.2-1.349-1.779.919.123,1.595-2.515-.4-.061-.818.654-.408.9-1.155-1.349.1-.292h5.046l.436.6v-1.5l-.436.6Z" transform="translate(-29.56 -981.236)" fill="#cb333b"/>
    </g>
    <g id="Group_80" data-name="Group 80" transform="translate(69.36 1021.373)">
      <path id="Path_485" data-name="Path 485" d="M75,1024.149a1.841,1.841,0,0,1,1.279-.4v-.555H70.718v.555a1.713,1.713,0,0,1,1.108.45,3.094,3.094,0,0,1,.246,1.569v7.379a7.477,7.477,0,0,0,.554,3.108,3.876,3.876,0,0,0,3.878,2.275,3.54,3.54,0,0,0,3.181-1.53,7.826,7.826,0,0,0,1.014-4.335v-7.051a2.355,2.355,0,0,1,.251-1.364,2.093,2.093,0,0,1,1.041-.5v-.555H78.377v.555a1.717,1.717,0,0,1,1.273.544,2.954,2.954,0,0,1,.328,1.639v6.734a8.915,8.915,0,0,1-.373,2.9,2.529,2.529,0,0,1-2.562,1.883,2.085,2.085,0,0,1-2.065-1.7,8.774,8.774,0,0,1-.3-2.6v-7.381A2.661,2.661,0,0,1,75,1024.149Z" transform="translate(-70.718 -1022.788)" fill="#1a1818"/>
      <path id="Path_486" data-name="Path 486" d="M84.008,1037.069c-.176.293-.569.448-1.18.472v.554h3.727v-.554a1.445,1.445,0,0,1-1.352-.739,3.517,3.517,0,0,1-.21-1.448v-8.641h.112l7.233,11.8H92.8v-13a2.133,2.133,0,0,1,.26-1.3,1.988,1.988,0,0,1,1.032-.459v-.555H90.556v.555a1.537,1.537,0,0,1,1.218.576,3.171,3.171,0,0,1,.3,1.607v6.484H92l-5.655-9.221H82.858v.555a.823.823,0,0,1,.483.252q.177.2.931,1.333v10.448A2.537,2.537,0,0,1,84.008,1037.069Z" transform="translate(-71.11 -1022.788)" fill="#1a1818"/>
      <path id="Path_487" data-name="Path 487" d="M95.935,1037.311a1.949,1.949,0,0,1-1,.23v.554h5.75v-.554a1.8,1.8,0,0,1-1.156-.315,1.545,1.545,0,0,1-.385-1.235V1025.3a1.494,1.494,0,0,1,.482-1.314,2.331,2.331,0,0,1,1.06-.234v-.555h-5.75v.555a2.1,2.1,0,0,1,1.027.247,1.49,1.49,0,0,1,.474,1.3v10.693A1.5,1.5,0,0,1,95.935,1037.311Z" transform="translate(-71.503 -1022.788)" fill="#1a1818"/>
      <path id="Path_488" data-name="Path 488" d="M106.876,1023.727v-.532h-5.5v.532a1.165,1.165,0,0,1,.839.419,3.883,3.883,0,0,1,.525,1.143l4.228,13.219h.433l3.746-12.97a4.218,4.218,0,0,1,.581-1.342,1.366,1.366,0,0,1,.9-.469v-.532h-3.5v.532a3.3,3.3,0,0,1,1.126.234c.184.1.278.365.278.784a3.2,3.2,0,0,1-.1.679c-.036.173-.078.343-.128.5l-2.145,7.453-2.6-8.142a1.849,1.849,0,0,1-.077-.321,2.458,2.458,0,0,1-.02-.316c0-.365.086-.589.262-.679A3.7,3.7,0,0,1,106.876,1023.727Z" transform="translate(-71.711 -1022.788)" fill="#1a1818"/>
      <path id="Path_489" data-name="Path 489" d="M114.48,1037.279a1.864,1.864,0,0,1-1,.261v.554h9.613l.662-4.58H123.3a6.891,6.891,0,0,1-1.766,3.065,3.929,3.929,0,0,1-2.569.816,1.716,1.716,0,0,1-1.1-.251,1.3,1.3,0,0,1-.267-.955v-5.34a2.214,2.214,0,0,1,1.943.771,5.733,5.733,0,0,1,.719,2.648h.42v-7.443h-.42a6.353,6.353,0,0,1-.763,2.58,2.143,2.143,0,0,1-1.9.682v-5.105a1.238,1.238,0,0,1,.2-.836,1.459,1.459,0,0,1,.961-.207,3.74,3.74,0,0,1,2.737.783,5.467,5.467,0,0,1,1.063,2.922h.4V1023.2h-9.476v.555a2,2,0,0,1,.986.255,1.48,1.48,0,0,1,.475,1.292v10.693A1.522,1.522,0,0,1,114.48,1037.279Z" transform="translate(-72.104 -1022.788)" fill="#1a1818"/>
      <path id="Path_490" data-name="Path 490" d="M125.777,1037.117a1.564,1.564,0,0,1-1.136.424v.554h5.552v-.554a1.458,1.458,0,0,1-1.152-.45,2.921,2.921,0,0,1-.289-1.572v-4.308h.009l3.84,6.884h3.39v-.523a1.032,1.032,0,0,1-.381-.1.806.806,0,0,1-.289-.336l-3.5-6.275a3.693,3.693,0,0,0,1.7-.992,3.786,3.786,0,0,0,1.05-2.832,3.411,3.411,0,0,0-1.974-3.377,6.574,6.574,0,0,0-2.666-.46h-5.289v.555a1.847,1.847,0,0,1,1.081.353,2.621,2.621,0,0,1,.361,1.666v9.749A2.751,2.751,0,0,1,125.777,1037.117Zm2.974-12.232a1.055,1.055,0,0,1,.2-.729,1.2,1.2,0,0,1,.864-.217,1.679,1.679,0,0,1,1.67,1.261,6.2,6.2,0,0,1,.265,2.025q0,2.091-.7,2.668a3.752,3.752,0,0,1-2.308.61Z" transform="translate(-72.465 -1022.788)" fill="#1a1818"/>
      <path id="Path_491" data-name="Path 491" d="M140.815,1037.655a2.524,2.524,0,0,1-2.012-1.122,7.96,7.96,0,0,1-1.269-3.591h-.475v5.453h.475a2.314,2.314,0,0,1,.166-.563.344.344,0,0,1,.346-.2.759.759,0,0,1,.176.029,1.983,1.983,0,0,1,.21.068l.318.162a4.3,4.3,0,0,0,.992.381,4.149,4.149,0,0,0,.994.123,3.449,3.449,0,0,0,3.111-1.475,5.679,5.679,0,0,0,.967-3.151,5.023,5.023,0,0,0-.9-3.032,5.094,5.094,0,0,0-1.3-1.216l-1.216-.819a10.451,10.451,0,0,1-1.964-1.554,2.739,2.739,0,0,1,.026-3.043,1.562,1.562,0,0,1,1.3-.607,2.358,2.358,0,0,1,1.981,1.207,7.548,7.548,0,0,1,1.134,2.871h.459v-4.8h-.492a2.088,2.088,0,0,1-.162.558.382.382,0,0,1-.373.208,5.307,5.307,0,0,1-.95-.365,4.278,4.278,0,0,0-1.73-.368,2.842,2.842,0,0,0-2.6,1.4,5.692,5.692,0,0,0-.852,3.016,4.756,4.756,0,0,0,.643,2.554,7.437,7.437,0,0,0,2.2,2.088l1.051.714a6.158,6.158,0,0,1,1.3,1.066,2.555,2.555,0,0,1,.484,1.617,3.134,3.134,0,0,1-.461,1.625A1.7,1.7,0,0,1,140.815,1037.655Z" transform="translate(-72.868 -1022.775)" fill="#1a1818"/>
      <path id="Path_492" data-name="Path 492" d="M147.027,1037.311a1.946,1.946,0,0,1-1,.23v.554h5.751v-.554a1.788,1.788,0,0,1-1.156-.315,1.538,1.538,0,0,1-.384-1.235V1025.3a1.493,1.493,0,0,1,.479-1.314,2.33,2.33,0,0,1,1.061-.234v-.555h-5.751v.555a2.093,2.093,0,0,1,1.026.247,1.494,1.494,0,0,1,.475,1.3v10.693A1.5,1.5,0,0,1,147.027,1037.311Z" transform="translate(-73.158 -1022.788)" fill="#1a1818"/>
      <path id="Path_493" data-name="Path 493" d="M160.751,1024.411a4.455,4.455,0,0,1,1.334,3.233h.475l-.016-4.449h-9.912l-.014,4.449h.472a4.146,4.146,0,0,1,1.334-3.233,3.368,3.368,0,0,1,1.853-.508v11.615a2.8,2.8,0,0,1-.321,1.613,1.583,1.583,0,0,1-1.282.4v.562h5.87v-.562a1.668,1.668,0,0,1-1.326-.4,2.819,2.819,0,0,1-.314-1.616V1023.9A3.256,3.256,0,0,1,160.751,1024.411Z" transform="translate(-73.372 -1022.788)" fill="#1a1818"/>
      <path id="Path_494" data-name="Path 494" d="M168.009,1023.924a4.185,4.185,0,0,1,1.094-.173v-.555h-5.5v.555a1.182,1.182,0,0,1,.586.194,2.127,2.127,0,0,1,.732,1.013l3,7.324v3.242a2.819,2.819,0,0,1-.306,1.593,1.562,1.562,0,0,1-1.218.424v.554h5.714v-.554a1.669,1.669,0,0,1-1.2-.4,2.687,2.687,0,0,1-.318-1.621v-4.062l3.138-6.86a1.569,1.569,0,0,1,.49-.626,2.721,2.721,0,0,1,.63-.224v-.555h-3.613v.555a3.106,3.106,0,0,1,1.028.205.818.818,0,0,1,.346.775,3.822,3.822,0,0,1-.282,1.164c-.121.346-.24.634-.35.872l-1.765,3.877h-.022l-2.168-5.3c-.108-.305-.178-.522-.206-.639a1.343,1.343,0,0,1-.042-.329A.443.443,0,0,1,168.009,1023.924Z" transform="translate(-73.728 -1022.788)" fill="#1a1818"/>
      <path id="Path_495" data-name="Path 495" d="M190.06,1036.368a10.387,10.387,0,0,0,0-11.371,5.052,5.052,0,0,0-8.352.112,9.437,9.437,0,0,0-1.624,5.693,9.168,9.168,0,0,0,1.55,5.364,5.066,5.066,0,0,0,8.426.2Zm-6.679-1.531a23.46,23.46,0,0,1-.009-8.269q.692-2.98,2.552-2.982c.893,0,1.6.6,2.125,1.788a13.744,13.744,0,0,1,.783,5.307,18.937,18.937,0,0,1-.371,4.156c-.457,1.958-1.3,2.943-2.537,2.943S183.833,1036.795,183.381,1034.837Z" transform="translate(-74.262 -1022.777)" fill="#1a1818"/>
      <path id="Path_496" data-name="Path 496" d="M193.866,1037.279a1.906,1.906,0,0,1-1.008.261v.554h5.918v-.554a2.546,2.546,0,0,1-1.363-.258c-.292-.182-.442-.614-.442-1.3v-5.137a1.991,1.991,0,0,1,1.835.816,6.232,6.232,0,0,1,.68,2.6h.421v-7.443h-.421a7.018,7.018,0,0,1-.714,2.508,1.865,1.865,0,0,1-1.8.754v-5.105a1.282,1.282,0,0,1,.195-.826c.131-.15.439-.217.918-.217a3.44,3.44,0,0,1,2.666.82,5.772,5.772,0,0,1,1.029,2.885h.4V1023.2h-9.32v.555a2.153,2.153,0,0,1,1.012.27,1.521,1.521,0,0,1,.448,1.292v10.674A1.546,1.546,0,0,1,193.866,1037.279Z" transform="translate(-74.676 -1022.788)" fill="#1a1818"/>
      <path id="Path_497" data-name="Path 497" d="M217.227,1023.2h-9.914l-.013,4.449h.471a4.137,4.137,0,0,1,1.337-3.233,3.338,3.338,0,0,1,1.849-.508v11.615a2.8,2.8,0,0,1-.32,1.613,1.582,1.582,0,0,1-1.281.4v.562h5.872v-.562a1.654,1.654,0,0,1-1.324-.4,2.757,2.757,0,0,1-.323-1.616V1023.9a3.277,3.277,0,0,1,1.853.508,4.478,4.478,0,0,1,1.332,3.233h.472Z" transform="translate(-75.144 -1022.788)" fill="#1a1818"/>
      <path id="Path_498" data-name="Path 498" d="M222.44,1029.881V1025.3a1.516,1.516,0,0,1,.468-1.292,2.129,2.129,0,0,1,1.007-.255v-.555h-5.573v.555a2.276,2.276,0,0,1,.983.286,1.561,1.561,0,0,1,.409,1.261v10.693a1.548,1.548,0,0,1-.456,1.3,1.867,1.867,0,0,1-.937.251v.554h5.573v-.554a2.013,2.013,0,0,1-.974-.23,1.506,1.506,0,0,1-.5-1.32V1030.9h3.906v5.087a1.528,1.528,0,0,1-.457,1.288,1.865,1.865,0,0,1-1.006.261v.554h5.6v-.554a1.806,1.806,0,0,1-.94-.239,1.5,1.5,0,0,1-.494-1.311V1025.3a1.506,1.506,0,0,1,.443-1.268,2.088,2.088,0,0,1,.992-.28v-.555h-5.6v.555a2.189,2.189,0,0,1,1.019.266,1.522,1.522,0,0,1,.444,1.282v4.583Z" transform="translate(-75.502 -1022.788)" fill="#1a1818"/>
      <path id="Path_499" data-name="Path 499" d="M232.361,1037.279a1.862,1.862,0,0,1-1,.261v.554h9.613l.666-4.58h-.459a6.854,6.854,0,0,1-1.769,3.065,3.906,3.906,0,0,1-2.566.816,1.707,1.707,0,0,1-1.1-.251,1.287,1.287,0,0,1-.272-.955v-5.34a2.211,2.211,0,0,1,1.946.771,5.72,5.72,0,0,1,.72,2.648h.416v-7.443h-.416a6.341,6.341,0,0,1-.762,2.58,2.148,2.148,0,0,1-1.9.682v-5.105a1.228,1.228,0,0,1,.207-.836,1.456,1.456,0,0,1,.964-.207,3.72,3.72,0,0,1,2.731.783,5.481,5.481,0,0,1,1.066,2.922h.4V1023.2h-9.478v.555a2.026,2.026,0,0,1,.987.255,1.481,1.481,0,0,1,.477,1.292v10.693A1.517,1.517,0,0,1,232.361,1037.279Z" transform="translate(-75.924 -1022.788)" fill="#1a1818"/>
      <path id="Path_500" data-name="Path 500" d="M70.759,1043.944a2.443,2.443,0,0,1,1.115.244,1.443,1.443,0,0,1,.513,1.306v10.689a1.452,1.452,0,0,1-.538,1.323,2.35,2.35,0,0,1-1.09.227v.556h6.228v-.556a2.077,2.077,0,0,1-1.248-.313,1.472,1.472,0,0,1-.419-1.237v-10.689a1.44,1.44,0,0,1,.523-1.315,2.658,2.658,0,0,1,1.144-.235v-.557H70.759Z" transform="translate(-70.719 -1023.435)" fill="#1a1818"/>
      <path id="Path_501" data-name="Path 501" d="M86.11,1043.944a1.728,1.728,0,0,1,1.319.577,2.944,2.944,0,0,1,.329,1.6v6.471h-.086l-6.12-9.208H77.779v.557a.905.905,0,0,1,.518.254c.13.134.463.575,1.006,1.33v10.449a2.37,2.37,0,0,1-.285,1.285c-.193.293-.616.448-1.279.47v.556h4.036v-.556a1.57,1.57,0,0,1-1.457-.739,3.255,3.255,0,0,1-.227-1.443v-8.643h.12l7.84,11.8h.494v-13a2,2,0,0,1,.283-1.3,2.262,2.262,0,0,1,1.117-.46v-.557H86.11Z" transform="translate(-70.946 -1023.435)" fill="#1a1818"/>
      <path id="Path_502" data-name="Path 502" d="M100.46,1056.69a4.022,4.022,0,0,1-2.558.945c-1.491,0-2.517-.954-3.066-2.86a17.609,17.609,0,0,1,.309-9.016,2.615,2.615,0,0,1,2.542-1.912,3.509,3.509,0,0,1,2.833,1.787,12.846,12.846,0,0,1,1.312,2.651h.452v-5.159h-.5a1.734,1.734,0,0,1-.256.684.616.616,0,0,1-.543.322,7.866,7.866,0,0,1-1.27-.511,5.4,5.4,0,0,0-2.253-.513,5.492,5.492,0,0,0-4.344,2.084,8.7,8.7,0,0,0-1.889,5.821,8.16,8.16,0,0,0,1.975,5.767,5.763,5.763,0,0,0,4.418,1.936,4.814,4.814,0,0,0,3.129-1.153,11.077,11.077,0,0,0,1.838-2.088l-.528-.541A10.665,10.665,0,0,1,100.46,1056.69Z" transform="translate(-71.383 -1023.426)" fill="#1a1818"/>
      <path id="Path_503" data-name="Path 503" d="M115.191,1057.18a17.1,17.1,0,0,1-1-2.513l-3.979-11.586h-.5l-3.95,12.07a11.434,11.434,0,0,1-.721,1.851,1.3,1.3,0,0,1-1.034.72v.556h3.633v-.556a2.85,2.85,0,0,1-.911-.129.719.719,0,0,1-.513-.689,5.146,5.146,0,0,1,.236-1.234c.073-.269.244-.835.506-1.711h4l.448,1.334c.1.291.18.541.237.753a3.405,3.405,0,0,1,.138.783c0,.38-.09.617-.273.71a3.559,3.559,0,0,1-1.149.183v.556h5.773v-.556A1,1,0,0,1,115.191,1057.18Zm-7.968-4.095,1.608-5.1h.146l1.71,5.1Z" transform="translate(-71.797 -1023.425)" fill="#1a1818"/>
      <path id="Path_504" data-name="Path 504" d="M128.675,1057.324l-3.788-6.274a4.047,4.047,0,0,0,1.821-.993,3.654,3.654,0,0,0,1.125-2.835,3.375,3.375,0,0,0-2.136-3.37,7.525,7.525,0,0,0-2.889-.466h-5.729v.557a2.066,2.066,0,0,1,1.169.356,2.43,2.43,0,0,1,.393,1.662v9.75a2.606,2.606,0,0,1-.327,1.6,1.78,1.78,0,0,1-1.235.421v.556h6.011v-.556a1.622,1.622,0,0,1-1.247-.448,2.736,2.736,0,0,1-.314-1.572V1051.4h.008l4.156,6.884h3.7v-.522a1.155,1.155,0,0,1-.4-.1A.805.805,0,0,1,128.675,1057.324Zm-4.649-7.239a4.3,4.3,0,0,1-2.5.612v-5.62a1,1,0,0,1,.22-.728,1.392,1.392,0,0,1,.936-.221,1.809,1.809,0,0,1,1.807,1.261,5.862,5.862,0,0,1,.284,2.028Q124.775,1049.51,124.025,1050.086Z" transform="translate(-72.22 -1023.435)" fill="#1a1818"/>
      <path id="Path_505" data-name="Path 505" d="M138.562,1043.944a1.713,1.713,0,0,1,1.315.577,2.9,2.9,0,0,1,.334,1.6v6.471h-.086L134,1043.386h-3.775v.557a.908.908,0,0,1,.52.254c.129.134.462.575,1.006,1.33v10.449a2.342,2.342,0,0,1-.288,1.285c-.188.293-.616.448-1.275.47v.556h4.035v-.556a1.578,1.578,0,0,1-1.46-.739,3.315,3.315,0,0,1-.226-1.443v-8.643h.12l7.843,11.8H141v-13a2,2,0,0,1,.282-1.3,2.253,2.253,0,0,1,1.117-.46v-.557h-3.834Z" transform="translate(-72.645 -1023.435)" fill="#1a1818"/>
      <path id="Path_506" data-name="Path 506" d="M154.527,1057.18a17.978,17.978,0,0,1-1-2.513l-3.979-11.586h-.5l-3.949,12.07a11.473,11.473,0,0,1-.723,1.851,1.3,1.3,0,0,1-1.032.72v.556h3.632v-.556a2.861,2.861,0,0,1-.914-.129.72.72,0,0,1-.513-.689,5.219,5.219,0,0,1,.237-1.234c.078-.269.245-.835.509-1.711h4l.45,1.334c.1.291.178.541.233.753a3.409,3.409,0,0,1,.142.783c0,.38-.095.617-.276.71a3.557,3.557,0,0,1-1.148.183v.556h5.776v-.556A1.009,1.009,0,0,1,154.527,1057.18Zm-7.969-4.095,1.611-5.1h.144l1.716,5.1Z" transform="translate(-73.072 -1023.425)" fill="#1a1818"/>
      <path id="Path_507" data-name="Path 507" d="M156.6,1043.386l-.014,4.45h.513a3.99,3.99,0,0,1,1.444-3.232,3.829,3.829,0,0,1,2-.508v11.616a2.639,2.639,0,0,1-.346,1.613,1.8,1.8,0,0,1-1.391.4v.558h6.355v-.558a1.864,1.864,0,0,1-1.426-.4,2.618,2.618,0,0,1-.347-1.616V1044.1a3.741,3.741,0,0,1,2,.508,4.3,4.3,0,0,1,1.444,3.232h.517l-.022-4.45Z" transform="translate(-73.501 -1023.435)" fill="#1a1818"/>
      <path id="Path_508" data-name="Path 508" d="M177.235,1056.773a4.507,4.507,0,0,1-2.785.818,1.951,1.951,0,0,1-1.2-.253,1.238,1.238,0,0,1-.294-.953v-5.34a2.523,2.523,0,0,1,2.117.768,5.417,5.417,0,0,1,.778,2.649h.453v-7.441h-.453a6.033,6.033,0,0,1-.823,2.579,2.445,2.445,0,0,1-2.072.682v-5.108a1.166,1.166,0,0,1,.223-.833,1.672,1.672,0,0,1,1.041-.212,4.274,4.274,0,0,1,2.968.788,5.238,5.238,0,0,1,1.152,2.92h.438v-4.45H168.516v.557a2.315,2.315,0,0,1,1.066.257,1.429,1.429,0,0,1,.515,1.292v10.689a1.476,1.476,0,0,1-.5,1.291,2.155,2.155,0,0,1-1.085.259v.556h10.408l.721-4.583h-.5A6.75,6.75,0,0,1,177.235,1056.773Z" transform="translate(-73.887 -1023.435)" fill="#1a1818"/>
      <path id="Path_509" data-name="Path 509" d="M198.967,1043.922a2.18,2.18,0,0,1,.859.17.859.859,0,0,1,.376.82,3.631,3.631,0,0,1-.034.493c-.025.147-.057.285-.088.412l-1.907,7.124-2.008-6.972c-.091-.36-.156-.642-.193-.847a2.491,2.491,0,0,1-.055-.415c0-.3.086-.5.252-.583a3.413,3.413,0,0,1,1.027-.2v-.536h-5.57v.536a1.933,1.933,0,0,1,.863.215,1.39,1.39,0,0,1,.438.551,9.369,9.369,0,0,1,.376,1.151,9.859,9.859,0,0,1,.25.987l-2.037,6.46h-.038l-2.18-7.726a3.217,3.217,0,0,1-.081-.393,2.681,2.681,0,0,1-.023-.328q0-.537.239-.69a2.25,2.25,0,0,1,.881-.226v-.536h-5.246v.536a1.407,1.407,0,0,1,.762.317,2.843,2.843,0,0,1,.484,1.095l3.763,13.323h.5l3.263-10.355h.122l2.992,10.355h.466l3.567-13.323a2.214,2.214,0,0,1,.611-1.154,1.375,1.375,0,0,1,.636-.258v-.536h-3.261Z" transform="translate(-74.424 -1023.435)" fill="#1a1818"/>
      <path id="Path_510" data-name="Path 510" d="M209.892,1043.049a5.549,5.549,0,0,0-4.575,2.261,8.877,8.877,0,0,0-1.762,5.69,8.6,8.6,0,0,0,1.681,5.355,5.764,5.764,0,0,0,9.143.207,9.735,9.735,0,0,0,0-11.362A5.605,5.605,0,0,0,209.892,1043.049Zm2.753,11.987q-.749,2.934-2.758,2.935-2.025,0-2.768-2.935a21.7,21.7,0,0,1-.007-8.266q.753-2.978,2.775-2.979a2.593,2.593,0,0,1,2.311,1.788,12.863,12.863,0,0,1,.849,5.3A17.481,17.481,0,0,1,212.645,1055.036Z" transform="translate(-75.023 -1023.424)" fill="#1a1818"/>
      <path id="Path_511" data-name="Path 511" d="M228.991,1057.324l-3.785-6.274a4.037,4.037,0,0,0,1.821-.993,3.655,3.655,0,0,0,1.126-2.835,3.378,3.378,0,0,0-2.143-3.37,7.47,7.47,0,0,0-2.882-.466H217.4v.557a2.079,2.079,0,0,1,1.173.356,2.433,2.433,0,0,1,.39,1.662v9.75a2.609,2.609,0,0,1-.329,1.6,1.768,1.768,0,0,1-1.234.421v.556h6.013v-.556a1.624,1.624,0,0,1-1.25-.448,2.751,2.751,0,0,1-.314-1.572V1051.4h.01l4.156,6.884h3.7v-.522a1.161,1.161,0,0,1-.4-.1A.846.846,0,0,1,228.991,1057.324Zm-4.651-7.239a4.282,4.282,0,0,1-2.5.612v-5.62a1.009,1.009,0,0,1,.219-.728,1.39,1.39,0,0,1,.935-.221,1.807,1.807,0,0,1,1.81,1.261,5.8,5.8,0,0,1,.288,2.028C225.1,1048.813,224.842,1049.7,224.339,1050.086Z" transform="translate(-75.471 -1023.435)" fill="#1a1818"/>
      <path id="Path_512" data-name="Path 512" d="M240.936,1045.565a6.039,6.039,0,0,0-5.027-2.179h-5.441v.557a2.266,2.266,0,0,1,.991.271,1.338,1.338,0,0,1,.493,1.191v10.865a1.342,1.342,0,0,1-.522,1.224,2.2,2.2,0,0,1-.963.238v.556h5.626a5.763,5.763,0,0,0,4.835-2.336,8.134,8.134,0,0,0,1.58-5.069A8.315,8.315,0,0,0,240.936,1045.565Zm-2.544,10.6a3.092,3.092,0,0,1-2.6,1.385.815.815,0,0,1-.761-.305,2.144,2.144,0,0,1-.2-.978v-10.853a1.984,1.984,0,0,1,.138-.919q.206-.364.9-.365,2.106,0,2.991,2.7a12.962,12.962,0,0,1,.546,4.013Q239.411,1054.781,238.393,1056.163Z" transform="translate(-75.895 -1023.435)" fill="#1a1818"/>
      <path id="Path_513" data-name="Path 513" d="M243.979,1057.125a.437.437,0,0,0-.436-.438h-.622v1.472h.277v-.6h.2l.279.6h.306l-.29-.623A.439.439,0,0,0,243.979,1057.125Zm-.436.161H243.2v-.322h.345a.161.161,0,0,1,0,.322Z" transform="translate(-76.299 -1023.86)" fill="#1a1818"/>
      <path id="Path_514" data-name="Path 514" d="M243.424,1056.115a1.29,1.29,0,1,0,1.29,1.289A1.289,1.289,0,0,0,243.424,1056.115Zm0,2.3a1.013,1.013,0,1,1,1.013-1.013A1.013,1.013,0,0,1,243.424,1058.418Z" transform="translate(-76.273 -1023.842)" fill="#1a1818"/>
    </g>
  </g>
</svg>